<?xml version="1.0" encoding="iso-8859-1"?>
<!-- Uploaded to: SVG Repo, www.svgrepo.com, Generator: SVG Repo Mixer Tools -->
<svg height="800px" width="800px" version="1.1" id="Layer_1" xmlns="http://www.w3.org/2000/svg" xmlns:xlink="http://www.w3.org/1999/xlink" 
	 viewBox="0 0 512.001 512.001" xml:space="preserve">
<path style="fill:#8CC1EA;" d="M483.042,464.97l-93.421,38.471l-41.585-24.479C228.255,408.507,104.083,284.357,33.628,164.575
	L9.17,122.99l38.471-93.421L89.4,9.782l83.538,125.297l-29.064,40.893l-19.615,27.573c19.008,33.497,48.462,70.196,81.527,103.26
	c33.065,33.087,69.785,62.54,103.282,81.549l27.573-19.615l40.893-29.064l125.297,83.516L483.042,464.97z"/>
<path d="M274.976,157.101c49.256,0,89.328,40.073,89.328,89.328c0,5.064,4.104,9.17,9.17,9.17s9.17-4.106,9.17-9.17
	c0-59.368-48.3-107.668-107.668-107.668c-5.065,0-9.17,4.106-9.17,9.17S269.912,157.101,274.976,157.101z"/>
<path d="M274.976,83.245c89.981,0,163.186,73.204,163.186,163.185c0,5.064,4.104,9.17,9.17,9.17s9.17-4.106,9.17-9.17
	c0-100.092-81.432-181.524-181.525-181.524c-5.065,0-9.17,4.106-9.17,9.17C265.807,79.139,269.912,83.245,274.976,83.245z"/>
<g>
	<polygon style="fill:#79B1D6;" points="89.4,9.371 172.941,134.666 143.88,175.549 143.636,175.891 47.648,29.152 	"/>
	<polygon style="fill:#79B1D6;" points="502.829,422.775 483.047,464.552 336.308,368.552 336.638,368.32 377.535,339.258 	"/>
</g>
<path d="M507.917,414.949L382.62,331.433c-3.164-2.108-7.299-2.047-10.398,0.155l-63.656,45.258
	c-30.493-18.096-64.47-45.293-96.295-77.138c-31.853-31.853-59.043-65.821-77.116-96.273l45.258-63.657
	c2.203-3.099,2.264-7.235,0.155-10.398L97.029,4.083c-2.523-3.786-7.445-5.147-11.556-3.2L43.714,20.671
	c-2.061,0.977-3.684,2.686-4.552,4.795l-38.47,93.422c-1.094,2.654-0.882,5.667,0.575,8.14l24.457,41.584
	c4.233,7.196,8.727,14.524,13.361,21.781c2.725,4.269,8.392,5.519,12.663,2.795c4.268-2.725,5.52-8.395,2.794-12.663
	c-4.513-7.069-8.89-14.206-13.01-21.21l-22.148-37.657l30.111-73.12l83.043,126.928l-15.75,22.15
	c-2.065,2.904-2.263,6.742-0.503,9.841c18.783,33.101,48.268,70.468,83.016,105.216c34.715,34.738,72.091,64.23,105.242,83.042
	c3.099,1.759,6.938,1.561,9.841-0.504l22.151-15.75l24.373,15.947c1.549,1.014,3.29,1.498,5.013,1.498
	c2.989,0,5.922-1.461,7.682-4.151c2.773-4.238,1.585-9.922-2.653-12.693l-18.363-12.013l25.113-17.855l113.452,75.62l-11.894,25.111
	l-82.366-53.888c-4.239-2.774-9.922-1.586-12.694,2.653c-2.773,4.238-1.585,9.92,2.653,12.693l76.609,50.123l-73.116,30.111
	l-37.659-22.17c-49.465-29.095-101.344-68.584-150.028-114.199c-48.264-45.222-92.499-95.61-127.924-145.715
	c-2.923-4.134-8.641-5.118-12.781-2.193c-4.135,2.923-5.118,8.646-2.193,12.781C134.262,326.5,240.292,425.617,343.385,486.254
	l41.585,24.479c1.428,0.841,3.036,1.268,4.652,1.268c1.183,0,2.369-0.229,3.491-0.691l93.421-38.471
	c2.11-0.868,3.819-2.493,4.796-4.554l19.788-41.779C513.065,422.391,511.702,417.473,507.917,414.949z M61.074,32.739l25.092-11.89
	l75.64,113.451l-17.855,25.113L61.074,32.739z"/>
</svg>